<svg xmlns="http://www.w3.org/2000/svg" width="128" height="128">
    <defs>
        <radialGradient id="prefix__d" cx="50%" cy="50%" r="50%">
            <stop offset="0%" stop-color="#fff" />
            <stop offset="30%" stop-color="#4caf50" />
            <stop offset="70%" stop-color="#2e7d32" />
            <stop offset="100%" stop-color="#1b5e20" />
        </radialGradient>
        <radialGradient id="prefix__f" cx="50%" cy="50%" r="50%">
            <stop offset="0%" stop-color="#ffeb3b" stop-opacity=".8" />
            <stop offset="30%" stop-color="#ff9800" stop-opacity=".6" />
            <stop offset="70%" stop-color="#f57c00" stop-opacity=".4" />
            <stop offset="100%" stop-color="#e65100" stop-opacity=".2" />
        </radialGradient>
        <radialGradient id="prefix__a" cx="50%" cy="50%" r="50%">
            <stop offset="0%" stop-color="#1a237e" />
            <stop offset="50%" stop-color="#0d47a1" />
            <stop offset="100%" stop-color="#01579b" />
        </radialGradient>
        <filter id="prefix__b" x="-50%" y="-50%" width="200%" height="200%">
            <feGaussianBlur stdDeviation="1" result="coloredBlur" />
            <feMerge>
                <feMergeNode in="coloredBlur" />
                <feMergeNode in="SourceGraphic" />
            </feMerge>
        </filter>
        <filter id="prefix__c" x="-50%" y="-50%" width="200%" height="200%">
            <feGaussianBlur stdDeviation="2" result="coloredBlur" />
            <feMerge>
                <feMergeNode in="coloredBlur" />
                <feMergeNode in="SourceGraphic" />
            </feMerge>
        </filter>
        <filter id="prefix__g" x="-20%" y="-20%" width="140%" height="140%">
            <feDropShadow dx="1" dy="1" stdDeviation="2" flood-color="#000000" flood-opacity=".5"/>
        </filter>
        <linearGradient id="prefix__e" x1="0%" y1="0%" x2="100%" y2="0%">
            <stop offset="0%" stop-color="#4caf50" />
            <stop offset="20%" stop-color="#66bb6a" stop-opacity=".9" />
            <stop offset="40%" stop-color="#81c784" stop-opacity=".7" />
            <stop offset="60%" stop-color="#a5d6a7" stop-opacity=".5" />
            <stop offset="80%" stop-color="#c8e6c9" stop-opacity=".3" />
            <stop offset="100%" stop-color="#e8f5e8" stop-opacity=".1" />
        </linearGradient>
    </defs>
    <circle cx="64" cy="64" r="64" fill="url(#prefix__a)" />
    <g filter="url(#prefix__b)" fill="#FFF">
        <circle cx="25" cy="20" r="1.5" opacity=".9" />
        <circle cx="100" cy="80" r="1.2" opacity=".8" />
        <circle cx="15" cy="70" r="1" opacity=".7" />
        <circle cx="110" cy="25" r="1.3" opacity=".8" />
        <circle cx="40" cy="15" r=".8" opacity=".6" />
        <circle cx="90" cy="100" r="1.1" opacity=".7" />
        <circle cx="5" cy="50" r=".9" opacity=".5" />
        <circle cx="120" cy="60" r=".7" opacity=".6" />
        <circle cx="35" cy="45" r=".5" opacity=".4" />
        <circle cx="75" cy="30" r=".6" opacity=".5" />
        <circle cx="50" cy="90" r=".4" opacity=".3" />
        <circle cx="85" cy="65" r=".5" opacity=".4" />
    </g>
    <g filter="url(#prefix__c)">
        <ellipse cx="85" cy="35" rx="6" ry="4" fill="url(#prefix__d)" stroke="#1B5E20" stroke-width=".5" />
        <ellipse cx="87" cy="33" rx="3" ry="2" fill="#FFF" opacity=".9" />
        <path d="M79 35q-14-3-29 0t-30 7q-10 3-15 6" stroke="url(#prefix__e)" stroke-width="8" stroke-linecap="round" fill="none" />
        <path d="M75 33q-15-3-30 0t-30 7q-7 3-12 6" stroke="#4CAF50" stroke-width="4" stroke-linecap="round" fill="none" opacity=".8" />
        <path d="M77 37q-15-3-30 0t-30 7q-7 3-12 6" stroke="#66BB6A" stroke-width="3" stroke-linecap="round" fill="none" opacity=".6" />
        <ellipse cx="80" cy="35" rx="8" ry="5" fill="url(#prefix__f)" opacity=".4" />
        <ellipse cx="70" cy="35" rx="6" ry="4" fill="url(#prefix__f)" opacity=".3" />
        <ellipse cx="60" cy="35" rx="4" ry="3" fill="url(#prefix__f)" opacity=".2" />
        <g opacity=".7">
            <circle cx="70" cy="32" r=".8" fill="#4CAF50" />
            <circle cx="65" cy="34" r=".6" fill="#66BB6A" />
            <circle cx="60" cy="36" r=".7" fill="#81C784" />
            <circle cx="55" cy="33" r=".5" fill="#A5D6A7" />
            <circle cx="50" cy="37" r=".6" fill="#66BB6A" />
            <circle cx="45" cy="35" r=".4" fill="#81C784" />
            <circle cx="40" cy="38" r=".5" fill="#A5D6A7" />
            <circle cx="35" cy="36" r=".3" fill="#C8E6C9" />
            <circle cx="30" cy="39" r=".4" fill="#81C784" />
            <circle cx="25" cy="37" r=".2" fill="#E8F5E8" />
        </g>
    </g>
    <g opacity=".6">
        <ellipse cx="85" cy="35" rx="12" ry="8" fill="none" stroke="#FF9800" opacity=".4" />
        <ellipse cx="85" cy="35" rx="15" ry="10" fill="none" stroke="#FF5722" stroke-width=".8" opacity=".3" />
        <circle cx="90" cy="30" r=".8" fill="#FFEB3B" opacity=".8" />
        <circle cx="88" cy="28" r=".6" fill="#FF9800" opacity=".7" />
        <circle cx="92" cy="32" r=".5" fill="#FFC107" opacity=".6" />
        <circle cx="86" cy="26" r=".4" fill="#FF5722" opacity=".5" />
    </g>
    <g opacity=".4">
        <path d="M90 30q10-10 20-20" stroke="#4CAF50" stroke-width="2" stroke-dasharray="4 3" fill="none" />
        <path d="M85 40L75 50 65 60" stroke="#66BB6A" stroke-width="1.5" stroke-dasharray="3 2" fill="none" />
        <circle cx="95" cy="25" r="1" fill="#4CAF50" opacity=".6" />
        <circle cx="100" cy="20" r="1" fill="#4CAF50" opacity=".5" />
        <circle cx="105" cy="15" r=".8" fill="#4CAF50" opacity=".4" />
        <circle cx="110" cy="10" r=".6" fill="#4CAF50" opacity=".3" />
        <circle cx="80" cy="45" r=".8" fill="#66BB6A" opacity=".5" />
        <circle cx="75" cy="50" r=".8" fill="#66BB6A" opacity=".4" />
        <circle cx="70" cy="55" r=".6" fill="#66BB6A" opacity=".3" />
        <circle cx="65" cy="60" r=".5" fill="#66BB6A" opacity=".2" />
    </g>
    <g opacity=".3">
        <path d="M110 10q10-10 18-20" stroke="#81C784" stroke-dasharray="2 4" fill="none" />
        <path d="M65 60L55 70 45 80" stroke="#A5D6A7" stroke-dasharray="2 3" fill="none" />
        <circle cx="120" cy="0" r="1.5" fill="#81C784" opacity=".4" />
        <circle cx="45" cy="80" r="1.2" fill="#A5D6A7" opacity=".3" />
    </g>
    <g opacity=".2" stroke-linecap="round" fill="none">
        <path d="M90 30q10-10 20-20" stroke="#4CAF50" stroke-width="4" />
        <path d="M85 40L75 50 65 60" stroke="#66BB6A" stroke-width="3" />
    </g>
    <g opacity=".6">
        <circle cx="92" cy="28" r=".3" fill="#4CAF50" />
        <circle cx="97" cy="23" r=".4" fill="#4CAF50" />
        <circle cx="102" cy="18" r=".3" fill="#4CAF50" />
        <circle cx="107" cy="13" r=".2" fill="#4CAF50" />
        <circle cx="87" cy="42" r=".3" fill="#66BB6A" />
        <circle cx="82" cy="47" r=".4" fill="#66BB6A" />
        <circle cx="77" cy="52" r=".3" fill="#66BB6A" />
        <circle cx="72" cy="57" r=".2" fill="#66BB6A" />
    </g>
    <g opacity=".3" stroke-width=".5">
        <path d="M88 32l-2-2" stroke="#4CAF50" opacity=".6" />
        <path d="M93 27l-2-2" stroke="#4CAF50" opacity=".5" />
        <path d="M98 22l-2-2" stroke="#4CAF50" opacity=".4" />
        <path d="M83 44l-2-2" stroke="#66BB6A" opacity=".6" />
        <path d="M78 49l-2-2" stroke="#66BB6A" opacity=".5" />
        <path d="M73 54l-2-2" stroke="#66BB6A" opacity=".4" />
    </g>
    <g filter="url(#prefix__g)">
        <circle cx="64" cy="64" r="25" fill="none" stroke="#4CAF50" stroke-width="2" opacity=".6" />
        <circle cx="64" cy="64" r="20" fill="none" stroke="#66BB6A" stroke-width="1.5" opacity=".4" />
        <text x="64" y="65" font-family="Arial, sans-serif" font-size="20" font-weight="bold" text-anchor="middle" fill="#FFF" opacity=".9">NEXUS</text>
    </g>
    <g opacity=".4">
        <path d="M20 100q10-5 20 0t20 0" stroke="#4CAF50" stroke-dasharray="3 2" fill="none" />
        <path d="M70 100q10-5 20 0t20 0" stroke="#66BB6A" stroke-dasharray="3 2" fill="none" />
        <circle cx="40" cy="100" r="2" fill="#4CAF50" />
        <circle cx="80" cy="100" r="2" fill="#66BB6A" />
        <circle cx="60" cy="100" r="2" fill="#81C784" />
        <circle cx="100" cy="100" r="2" fill="#A5D6A7" />
    </g>
</svg>